<svg xmlns="http://www.w3.org/2000/svg" xmlns:xlink="http://www.w3.org/1999/xlink" width="1080" zoomAndPan="magnify" viewBox="0 0 810 809.999993" height="1080" preserveAspectRatio="xMidYMid meet" version="1.0"><defs><g/></defs><rect x="-81" width="972" fill="#ffffff" y="-80.999999" height="971.999992" fill-opacity="1"/><rect x="-81" width="972" fill="#26120b" y="-80.999999" height="971.999992" fill-opacity="1"/><rect x="-81" width="972" fill="#ffffff" y="-80.999999" height="971.999992" fill-opacity="1"/><rect x="-81" width="972" fill="#26120b" y="-80.999999" height="971.999992" fill-opacity="1"/><path fill="#401d11" d="M 404.691406 713.679688 C 280.402344 713.679688 190.007812 596.984375 190.007812 596.984375 L 265.335938 596.984375 L 265.335938 636.503906 L 319.949219 636.503906 L 319.949219 596.984375 L 469.664062 596.984375 L 469.664062 636.503906 L 524.277344 636.503906 L 524.277344 596.984375 L 619.375 596.984375 C 619.375 596.984375 528.984375 713.679688 404.691406 713.679688 Z M 231.867188 395.144531 L 351.976562 480.890625 L 195.996094 482.472656 Z M 578.101562 395.144531 L 613.976562 482.472656 L 457.992188 480.890625 Z M 724.484375 460.203125 C 651.101562 243.371094 465.960938 274.550781 417.027344 287.015625 C 430.308594 253.511719 456.476562 225.453125 476.371094 207.675781 C 487.429688 197.789062 484.175781 179.730469 470.398438 174.214844 L 452.363281 167.003906 C 424.910156 170.367188 406.828125 247.230469 399.039062 288.652344 C 362.046875 278.117188 162.382812 232.972656 85.488281 460.203125 C 0.582031 711.09375 255.300781 773.820312 306.984375 777.511719 C 358.667969 781.199219 381.160156 762.75 404.988281 762.75 C 428.804688 762.75 451.304688 781.199219 502.988281 777.511719 C 554.671875 773.820312 809.390625 711.09375 724.484375 460.203125 " fill-opacity="1" fill-rule="nonzero"/><path stroke-linecap="round" transform="matrix(0.000000000000000092, 1.499807, -1.5, 0.000000000000000092, 81.74795, 258.873288)" fill="none" stroke-linejoin="miter" d="M 0.501206 0.00123736 L 302.542772 0.00123736 " stroke="#d94814" stroke-width="1" stroke-opacity="1" stroke-miterlimit="4"/><path stroke-linecap="round" transform="matrix(0.000000000000000092, 1.499807, -1.5, 0.000000000000000092, 140.58886, 258.873288)" fill="none" stroke-linejoin="miter" d="M 0.501206 -0.000656082 L 302.542772 -0.000656082 " stroke="#d94814" stroke-width="1" stroke-opacity="1" stroke-miterlimit="4"/><path stroke-linecap="round" transform="matrix(0.000000000000000092, 1.499807, -1.5, 0.000000000000000092, 199.429769, 258.873288)" fill="none" stroke-linejoin="miter" d="M 0.501206 0.0000546446 L 302.542772 0.0000546446 " stroke="#d94814" stroke-width="1" stroke-opacity="1" stroke-miterlimit="4"/><path stroke-linecap="round" transform="matrix(0.000000000000000092, 1.499807, -1.5, 0.000000000000000092, 258.270665, 258.873288)" fill="none" stroke-linejoin="miter" d="M 0.501206 0.000755771 L 302.542772 0.000755771 " stroke="#d94814" stroke-width="1" stroke-opacity="1" stroke-miterlimit="4"/><path stroke-linecap="round" transform="matrix(0.000000000000000092, 1.499807, -1.5, 0.000000000000000092, 317.111589, 258.873288)" fill="none" stroke-linejoin="miter" d="M 0.501206 -0.00112807 L 302.542772 -0.00112807 " stroke="#d94814" stroke-width="1" stroke-opacity="1" stroke-miterlimit="4"/><path stroke-linecap="round" transform="matrix(0.000000000000000092, 1.499807, -1.5, 0.000000000000000092, 375.952485, 258.873288)" fill="none" stroke-linejoin="miter" d="M 0.501206 -0.000426942 L 302.542772 -0.000426942 " stroke="#d94814" stroke-width="1" stroke-opacity="1" stroke-miterlimit="4"/><path stroke-linecap="round" transform="matrix(0.000000000000000092, 1.499807, -1.5, 0.000000000000000092, 434.79339, 258.873288)" fill="none" stroke-linejoin="miter" d="M 0.501206 0.000280584 L 302.542772 0.000280584 " stroke="#d94814" stroke-width="1" stroke-opacity="1" stroke-miterlimit="4"/><path stroke-linecap="round" transform="matrix(0.000000000000000092, 1.499807, -1.5, 0.000000000000000092, 552.475224, 258.873288)" fill="none" stroke-linejoin="miter" d="M 0.501206 -0.00089253 L 302.542772 -0.00089253 " stroke="#d94814" stroke-width="1" stroke-opacity="1" stroke-miterlimit="4"/><path stroke-linecap="round" transform="matrix(0.000000000000000092, 1.499807, -1.5, 0.000000000000000092, 611.316117, 258.873288)" fill="none" stroke-linejoin="miter" d="M 0.501206 -0.000193003 L 302.542772 -0.000193003 " stroke="#d94814" stroke-width="1" stroke-opacity="1" stroke-miterlimit="4"/><path stroke-linecap="round" transform="matrix(0.000000000000000092, 1.499807, -1.5, 0.000000000000000092, 670.15701, 258.873288)" fill="none" stroke-linejoin="miter" d="M 0.501206 0.000506524 L 302.542772 0.000506524 " stroke="#d94814" stroke-width="1" stroke-opacity="1" stroke-miterlimit="4"/><path stroke-linecap="round" transform="matrix(0.000000000000000092, 1.499807, -1.5, 0.000000000000000092, 728.997927, 258.873288)" fill="none" stroke-linejoin="miter" d="M 0.501206 0.00122205 L 302.542772 0.00122205 " stroke="#d94814" stroke-width="1" stroke-opacity="1" stroke-miterlimit="4"/><path stroke-linecap="round" transform="matrix(0.000000000000000092, 1.499807, -1.5, 0.000000000000000092, 493.634283, 258.873288)" fill="none" stroke-linejoin="miter" d="M 0.501206 0.000980111 L 302.542772 0.000980111 " stroke="#d94814" stroke-width="1" stroke-opacity="1" stroke-miterlimit="4"/><path stroke-linecap="round" transform="matrix(1.5, 0, 0, 1.5, 80.999999, 712.68392)" fill="none" stroke-linejoin="miter" d="M 0.5 -0.000217597 L 431.500022 -0.000217597 " stroke="#d94814" stroke-width="1" stroke-opacity="1" stroke-miterlimit="4"/><path stroke-linecap="round" transform="matrix(1.5, 0, 0, 1.5, 80.999999, 259.621238)" fill="none" stroke-linejoin="miter" d="M 0.5 -0.0000962592 L 431.500022 -0.0000962592 " stroke="#d94814" stroke-width="1" stroke-opacity="1" stroke-miterlimit="4"/><path stroke-linecap="round" transform="matrix(1.5, 0, 0, 1.5, 80.999999, 316.254057)" fill="none" stroke-linejoin="miter" d="M 0.5 -0.000100426 L 431.500022 -0.000100426 " stroke="#d94814" stroke-width="1" stroke-opacity="1" stroke-miterlimit="4"/><path stroke-linecap="round" transform="matrix(1.5, 0, 0, 1.5, 80.999999, 372.886904)" fill="none" stroke-linejoin="miter" d="M 0.5 -0.000123794 L 431.500022 -0.000123794 " stroke="#d94814" stroke-width="1" stroke-opacity="1" stroke-miterlimit="4"/><path stroke-linecap="round" transform="matrix(1.5, 0, 0, 1.5, 80.999999, 429.519742)" fill="none" stroke-linejoin="miter" d="M 0.5 -0.000140761 L 431.500022 -0.000140761 " stroke="#d94814" stroke-width="1" stroke-opacity="1" stroke-miterlimit="4"/><path stroke-linecap="round" transform="matrix(1.5, 0, 0, 1.5, 80.999999, 486.152564)" fill="none" stroke-linejoin="miter" d="M 0.5 -0.000146528 L 431.500022 -0.000146528 " stroke="#d94814" stroke-width="1" stroke-opacity="1" stroke-miterlimit="4"/><path stroke-linecap="round" transform="matrix(1.5, 0, 0, 1.5, 80.999999, 542.785433)" fill="none" stroke-linejoin="miter" d="M 0.5 -0.000184295 L 431.500022 -0.000184295 " stroke="#d94814" stroke-width="1" stroke-opacity="1" stroke-miterlimit="4"/><path stroke-linecap="round" transform="matrix(1.5, 0, 0, 1.5, 80.999999, 599.418206)" fill="none" stroke-linejoin="miter" d="M 0.5 -0.000158063 L 431.500022 -0.000158063 " stroke="#d94814" stroke-width="1" stroke-opacity="1" stroke-miterlimit="4"/><path stroke-linecap="round" transform="matrix(1.5, 0, 0, 1.5, 80.999999, 656.051051)" fill="none" stroke-linejoin="miter" d="M 0.5 -0.00017983 L 431.500022 -0.00017983 " stroke="#d94814" stroke-width="1" stroke-opacity="1" stroke-miterlimit="4"/><g fill="#ffffff" fill-opacity="1"><g transform="translate(279.841307, 693.939369)"><g><path d="M 6.09375 -3.421875 L 15.109375 -3.421875 L 15.109375 0 L 1.84375 0 L 1.84375 -20.625 L 6.09375 -20.625 Z M 6.09375 -3.421875 "/></g></g></g><g fill="#ffffff" fill-opacity="1"><g transform="translate(279.841307, 637.634628)"><g><path d="M 6.09375 -3.421875 L 15.109375 -3.421875 L 15.109375 0 L 1.84375 0 L 1.84375 -20.625 L 6.09375 -20.625 Z M 6.09375 -3.421875 "/></g></g></g><g fill="#ffffff" fill-opacity="1"><g transform="translate(278.142089, 581.001783)"><g><path d="M 17.453125 -20.625 L 17.453125 -7.046875 C 17.453125 -4.785156 16.742188 -3 15.328125 -1.6875 C 13.921875 -0.375 11.992188 0.28125 9.546875 0.28125 C 7.140625 0.28125 5.226562 -0.351562 3.8125 -1.625 C 2.394531 -2.90625 1.671875 -4.660156 1.640625 -6.890625 L 1.640625 -20.625 L 5.890625 -20.625 L 5.890625 -7.015625 C 5.890625 -5.660156 6.210938 -4.671875 6.859375 -4.046875 C 7.503906 -3.429688 8.398438 -3.125 9.546875 -3.125 C 11.941406 -3.125 13.15625 -4.382812 13.1875 -6.90625 L 13.1875 -20.625 Z M 17.453125 -20.625 "/></g></g></g><g fill="#ffffff" fill-opacity="1"><g transform="translate(277.450682, 524.368938)"><g><path d="M 18.609375 0 L 14.359375 0 L 6.09375 -13.578125 L 6.09375 0 L 1.84375 0 L 1.84375 -20.625 L 6.09375 -20.625 L 14.375 -7.03125 L 14.375 -20.625 L 18.609375 -20.625 Z M 18.609375 0 "/></g></g></g><g fill="#ffffff" fill-opacity="1"><g transform="translate(283.462401, 467.73614)"><g><path d="M 6.359375 0 L 2.109375 0 L 2.109375 -20.625 L 6.359375 -20.625 Z M 6.359375 0 "/></g></g></g><g fill="#ffffff" fill-opacity="1"><g transform="translate(278.435057, 411.103329)"><g><path d="M 9.484375 -7.546875 L 6.09375 -7.546875 L 6.09375 0 L 1.84375 0 L 1.84375 -20.625 L 9.5 -20.625 C 11.9375 -20.625 13.816406 -20.082031 15.140625 -19 C 16.460938 -17.914062 17.125 -16.378906 17.125 -14.390625 C 17.125 -12.984375 16.816406 -11.8125 16.203125 -10.875 C 15.597656 -9.9375 14.675781 -9.1875 13.4375 -8.625 L 17.90625 -0.203125 L 17.90625 0 L 13.34375 0 Z M 6.09375 -11 L 9.515625 -11 C 10.585938 -11 11.414062 -11.269531 12 -11.8125 C 12.582031 -12.351562 12.875 -13.097656 12.875 -14.046875 C 12.875 -15.023438 12.597656 -15.789062 12.046875 -16.34375 C 11.492188 -16.90625 10.644531 -17.1875 9.5 -17.1875 L 6.09375 -17.1875 Z M 6.09375 -11 "/></g></g></g><g fill="#ffffff" fill-opacity="1"><g transform="translate(278.259276, 354.470481)"><g><path d="M 1.84375 0 L 1.84375 -20.625 L 8.1875 -20.625 C 10 -20.625 11.617188 -20.210938 13.046875 -19.390625 C 14.484375 -18.578125 15.601562 -17.414062 16.40625 -15.90625 C 17.207031 -14.40625 17.609375 -12.695312 17.609375 -10.78125 L 17.609375 -9.828125 C 17.609375 -7.910156 17.210938 -6.207031 16.421875 -4.71875 C 15.640625 -3.226562 14.53125 -2.070312 13.09375 -1.25 C 11.65625 -0.425781 10.035156 -0.0078125 8.234375 0 Z M 6.09375 -17.1875 L 6.09375 -3.421875 L 8.140625 -3.421875 C 9.804688 -3.421875 11.078125 -3.960938 11.953125 -5.046875 C 12.835938 -6.128906 13.285156 -7.679688 13.296875 -9.703125 L 13.296875 -10.796875 C 13.296875 -12.890625 12.863281 -14.476562 12 -15.5625 C 11.132812 -16.644531 9.863281 -17.1875 8.1875 -17.1875 Z M 6.09375 -17.1875 "/></g></g></g><g fill="#ffffff" fill-opacity="1"><g transform="translate(278.774901, 297.83766)"><g><path d="M 12.53125 -5.40625 C 12.53125 -6.207031 12.25 -6.820312 11.6875 -7.25 C 11.125 -7.6875 10.101562 -8.144531 8.625 -8.625 C 7.15625 -9.101562 5.988281 -9.570312 5.125 -10.03125 C 2.78125 -11.289062 1.609375 -12.992188 1.609375 -15.140625 C 1.609375 -16.253906 1.921875 -17.25 2.546875 -18.125 C 3.179688 -19 4.085938 -19.679688 5.265625 -20.171875 C 6.441406 -20.660156 7.757812 -20.90625 9.21875 -20.90625 C 10.695312 -20.90625 12.007812 -20.640625 13.15625 -20.109375 C 14.3125 -19.578125 15.207031 -18.820312 15.84375 -17.84375 C 16.476562 -16.875 16.796875 -15.769531 16.796875 -14.53125 L 12.546875 -14.53125 C 12.546875 -15.476562 12.25 -16.210938 11.65625 -16.734375 C 11.0625 -17.265625 10.226562 -17.53125 9.15625 -17.53125 C 8.113281 -17.53125 7.300781 -17.304688 6.71875 -16.859375 C 6.144531 -16.421875 5.859375 -15.84375 5.859375 -15.125 C 5.859375 -14.457031 6.195312 -13.894531 6.875 -13.4375 C 7.550781 -12.988281 8.546875 -12.566406 9.859375 -12.171875 C 12.273438 -11.441406 14.035156 -10.535156 15.140625 -9.453125 C 16.242188 -8.378906 16.796875 -7.039062 16.796875 -5.4375 C 16.796875 -3.65625 16.117188 -2.253906 14.765625 -1.234375 C 13.421875 -0.222656 11.609375 0.28125 9.328125 0.28125 C 7.734375 0.28125 6.285156 -0.00390625 4.984375 -0.578125 C 3.679688 -1.160156 2.6875 -1.957031 2 -2.96875 C 1.320312 -3.976562 0.984375 -5.148438 0.984375 -6.484375 L 5.234375 -6.484375 C 5.234375 -4.210938 6.597656 -3.078125 9.328125 -3.078125 C 10.335938 -3.078125 11.125 -3.28125 11.6875 -3.6875 C 12.25 -4.101562 12.53125 -4.675781 12.53125 -5.40625 Z M 12.53125 -5.40625 "/></g></g></g><g fill="#ffffff" fill-opacity="1"><g transform="translate(338.375903, 693.939369)"><g><path d="M 14.25 -8.9375 L 6.09375 -8.9375 L 6.09375 -3.421875 L 15.671875 -3.421875 L 15.671875 0 L 1.84375 0 L 1.84375 -20.625 L 15.640625 -20.625 L 15.640625 -17.1875 L 6.09375 -17.1875 L 6.09375 -12.265625 L 14.25 -12.265625 Z M 14.25 -8.9375 "/></g></g></g><g fill="#ffffff" fill-opacity="1"><g transform="translate(337.051685, 637.634628)"><g><path d="M 9.46875 -5.109375 L 14.140625 -20.625 L 18.875 -20.625 L 11.6875 0 L 7.25 0 L 0.09375 -20.625 L 4.8125 -20.625 Z M 9.46875 -5.109375 "/></g></g></g><g fill="#ffffff" fill-opacity="1"><g transform="translate(336.981372, 581.001783)"><g><path d="M 17.453125 -20.625 L 17.453125 -7.046875 C 17.453125 -4.785156 16.742188 -3 15.328125 -1.6875 C 13.921875 -0.375 11.992188 0.28125 9.546875 0.28125 C 7.140625 0.28125 5.226562 -0.351562 3.8125 -1.625 C 2.394531 -2.90625 1.671875 -4.660156 1.640625 -6.890625 L 1.640625 -20.625 L 5.890625 -20.625 L 5.890625 -7.015625 C 5.890625 -5.660156 6.210938 -4.671875 6.859375 -4.046875 C 7.503906 -3.429688 8.398438 -3.125 9.546875 -3.125 C 11.941406 -3.125 13.15625 -4.382812 13.1875 -6.90625 L 13.1875 -20.625 Z M 17.453125 -20.625 "/></g></g></g><g fill="#ffffff" fill-opacity="1"><g transform="translate(337.274341, 524.368938)"><g><path d="M 1.84375 0 L 1.84375 -20.625 L 9.0625 -20.625 C 11.570312 -20.625 13.472656 -20.144531 14.765625 -19.1875 C 16.054688 -18.226562 16.703125 -16.820312 16.703125 -14.96875 C 16.703125 -13.957031 16.441406 -13.066406 15.921875 -12.296875 C 15.398438 -11.535156 14.675781 -10.972656 13.75 -10.609375 C 14.8125 -10.347656 15.644531 -9.816406 16.25 -9.015625 C 16.863281 -8.210938 17.171875 -7.226562 17.171875 -6.0625 C 17.171875 -4.082031 16.535156 -2.582031 15.265625 -1.5625 C 14.003906 -0.539062 12.203125 -0.0195312 9.859375 0 Z M 6.09375 -8.984375 L 6.09375 -3.421875 L 9.734375 -3.421875 C 10.734375 -3.421875 11.515625 -3.65625 12.078125 -4.125 C 12.640625 -4.601562 12.921875 -5.265625 12.921875 -6.109375 C 12.921875 -7.992188 11.941406 -8.953125 9.984375 -8.984375 Z M 6.09375 -11.984375 L 9.234375 -11.984375 C 11.378906 -12.023438 12.453125 -12.878906 12.453125 -14.546875 C 12.453125 -15.484375 12.179688 -16.15625 11.640625 -16.5625 C 11.097656 -16.976562 10.238281 -17.1875 9.0625 -17.1875 L 6.09375 -17.1875 Z M 6.09375 -11.984375 "/></g></g></g><g fill="#ffffff" fill-opacity="1"><g transform="translate(336.770435, 467.73614)"><g><path d="M 13.484375 -4.25 L 6.03125 -4.25 L 4.625 0 L 0.09375 0 L 7.78125 -20.625 L 11.71875 -20.625 L 19.4375 0 L 14.921875 0 Z M 7.1875 -7.6875 L 12.34375 -7.6875 L 9.75 -15.421875 Z M 7.1875 -7.6875 "/></g></g></g><g fill="#ffffff" fill-opacity="1"><g transform="translate(337.274341, 411.103329)"><g><path d="M 1.84375 0 L 1.84375 -20.625 L 9.0625 -20.625 C 11.570312 -20.625 13.472656 -20.144531 14.765625 -19.1875 C 16.054688 -18.226562 16.703125 -16.820312 16.703125 -14.96875 C 16.703125 -13.957031 16.441406 -13.066406 15.921875 -12.296875 C 15.398438 -11.535156 14.675781 -10.972656 13.75 -10.609375 C 14.8125 -10.347656 15.644531 -9.816406 16.25 -9.015625 C 16.863281 -8.210938 17.171875 -7.226562 17.171875 -6.0625 C 17.171875 -4.082031 16.535156 -2.582031 15.265625 -1.5625 C 14.003906 -0.539062 12.203125 -0.0195312 9.859375 0 Z M 6.09375 -8.984375 L 6.09375 -3.421875 L 9.734375 -3.421875 C 10.734375 -3.421875 11.515625 -3.65625 12.078125 -4.125 C 12.640625 -4.601562 12.921875 -5.265625 12.921875 -6.109375 C 12.921875 -7.992188 11.941406 -8.953125 9.984375 -8.984375 Z M 6.09375 -11.984375 L 9.234375 -11.984375 C 11.378906 -12.023438 12.453125 -12.878906 12.453125 -14.546875 C 12.453125 -15.484375 12.179688 -16.15625 11.640625 -16.5625 C 11.097656 -16.976562 10.238281 -17.1875 9.0625 -17.1875 L 6.09375 -17.1875 Z M 6.09375 -11.984375 "/></g></g></g><g fill="#ffffff" fill-opacity="1"><g transform="translate(338.680591, 354.470481)"><g><path d="M 6.09375 -3.421875 L 15.109375 -3.421875 L 15.109375 0 L 1.84375 0 L 1.84375 -20.625 L 6.09375 -20.625 Z M 6.09375 -3.421875 "/></g></g></g><g fill="#ffffff" fill-opacity="1"><g transform="translate(337.555591, 297.83766)"><g><path d="M 17.375 -17.1875 L 11.046875 -17.1875 L 11.046875 0 L 6.796875 0 L 6.796875 -17.1875 L 0.5625 -17.1875 L 0.5625 -20.625 L 17.375 -20.625 Z M 17.375 -17.1875 "/></g></g></g><g fill="#ffffff" fill-opacity="1"><g transform="translate(454.956137, 693.939369)"><g><path d="M 9.484375 -7.546875 L 6.09375 -7.546875 L 6.09375 0 L 1.84375 0 L 1.84375 -20.625 L 9.5 -20.625 C 11.9375 -20.625 13.816406 -20.082031 15.140625 -19 C 16.460938 -17.914062 17.125 -16.378906 17.125 -14.390625 C 17.125 -12.984375 16.816406 -11.8125 16.203125 -10.875 C 15.597656 -9.9375 14.675781 -9.1875 13.4375 -8.625 L 17.90625 -0.203125 L 17.90625 0 L 13.34375 0 Z M 6.09375 -11 L 9.515625 -11 C 10.585938 -11 11.414062 -11.269531 12 -11.8125 C 12.582031 -12.351562 12.875 -13.097656 12.875 -14.046875 C 12.875 -15.023438 12.597656 -15.789062 12.046875 -16.34375 C 11.492188 -16.90625 10.644531 -17.1875 9.5 -17.1875 L 6.09375 -17.1875 Z M 6.09375 -11 "/></g></g></g><g fill="#ffffff" fill-opacity="1"><g transform="translate(453.971762, 637.634628)"><g><path d="M 18.609375 0 L 14.359375 0 L 6.09375 -13.578125 L 6.09375 0 L 1.84375 0 L 1.84375 -20.625 L 6.09375 -20.625 L 14.375 -7.03125 L 14.375 -20.625 L 18.609375 -20.625 Z M 18.609375 0 "/></g></g></g><g fill="#ffffff" fill-opacity="1"><g transform="translate(453.960043, 581.001783)"><g><path d="M 18.625 0 L 14.375 0 L 14.375 -8.84375 L 6.09375 -8.84375 L 6.09375 0 L 1.84375 0 L 1.84375 -20.625 L 6.09375 -20.625 L 6.09375 -12.265625 L 14.375 -12.265625 L 14.375 -20.625 L 18.625 -20.625 Z M 18.625 0 "/></g></g></g><g fill="#ffffff" fill-opacity="1"><g transform="translate(454.194418, 524.368938)"><g><path d="M 18.78125 -9.84375 C 18.78125 -7.8125 18.421875 -6.03125 17.703125 -4.5 C 16.992188 -2.96875 15.96875 -1.785156 14.625 -0.953125 C 13.289062 -0.128906 11.757812 0.28125 10.03125 0.28125 C 8.320312 0.28125 6.796875 -0.128906 5.453125 -0.953125 C 4.109375 -1.773438 3.066406 -2.945312 2.328125 -4.46875 C 1.597656 -6 1.226562 -7.753906 1.21875 -9.734375 L 1.21875 -10.75 C 1.21875 -12.78125 1.582031 -14.566406 2.3125 -16.109375 C 3.050781 -17.660156 4.085938 -18.847656 5.421875 -19.671875 C 6.753906 -20.492188 8.28125 -20.90625 10 -20.90625 C 11.71875 -20.90625 13.242188 -20.492188 14.578125 -19.671875 C 15.921875 -18.847656 16.957031 -17.660156 17.6875 -16.109375 C 18.414062 -14.566406 18.78125 -12.785156 18.78125 -10.765625 Z M 14.484375 -10.78125 C 14.484375 -12.945312 14.09375 -14.585938 13.3125 -15.703125 C 12.539062 -16.828125 11.4375 -17.390625 10 -17.390625 C 8.570312 -17.390625 7.472656 -16.832031 6.703125 -15.71875 C 5.929688 -14.613281 5.539062 -12.992188 5.53125 -10.859375 L 5.53125 -9.84375 C 5.53125 -7.738281 5.914062 -6.101562 6.6875 -4.9375 C 7.457031 -3.78125 8.570312 -3.203125 10.03125 -3.203125 C 11.457031 -3.203125 12.550781 -3.757812 13.3125 -4.875 C 14.082031 -6 14.472656 -7.632812 14.484375 -9.78125 Z M 14.484375 -10.78125 "/></g></g></g><g fill="#ffffff" fill-opacity="1"><g transform="translate(455.237387, 467.73614)"><g><path d="M 17.375 -17.1875 L 11.046875 -17.1875 L 11.046875 0 L 6.796875 0 L 6.796875 -17.1875 L 0.5625 -17.1875 L 0.5625 -20.625 L 17.375 -20.625 Z M 17.375 -17.1875 "/></g></g></g><g fill="#ffffff" fill-opacity="1"><g transform="translate(453.960043, 411.103329)"><g><path d="M 18.625 0 L 14.375 0 L 14.375 -8.84375 L 6.09375 -8.84375 L 6.09375 0 L 1.84375 0 L 1.84375 -20.625 L 6.09375 -20.625 L 6.09375 -12.265625 L 14.375 -12.265625 L 14.375 -20.625 L 18.625 -20.625 Z M 18.625 0 "/></g></g></g><g fill="#ffffff" fill-opacity="1"><g transform="translate(451.510824, 354.470481)"><g><path d="M 7.390625 -20.625 L 12.6875 -5.671875 L 17.96875 -20.625 L 23.546875 -20.625 L 23.546875 0 L 19.28125 0 L 19.28125 -5.640625 L 19.703125 -15.375 L 14.140625 0 L 11.21875 0 L 5.671875 -15.359375 L 6.09375 -5.640625 L 6.09375 0 L 1.84375 0 L 1.84375 -20.625 Z M 7.390625 -20.625 "/></g></g></g><g fill="#ffffff" fill-opacity="1"><g transform="translate(455.003012, 297.83766)"><g><path d="M 8.296875 -8.28125 L 6.09375 -5.890625 L 6.09375 0 L 1.84375 0 L 1.84375 -20.625 L 6.09375 -20.625 L 6.09375 -11.28125 L 7.96875 -13.84375 L 13.21875 -20.625 L 18.453125 -20.625 L 11.125 -11.46875 L 18.65625 0 L 13.59375 0 Z M 8.296875 -8.28125 "/></g></g></g><g fill="#ffffff" fill-opacity="1"><g transform="translate(518.821154, 693.939369)"><g><path d="M 6.359375 0 L 2.109375 0 L 2.109375 -20.625 L 6.359375 -20.625 Z M 6.359375 0 "/></g></g></g><g fill="#ffffff" fill-opacity="1"><g transform="translate(513.559436, 637.634628)"><g><path d="M 18.03125 -6.875 C 17.875 -4.65625 17.054688 -2.90625 15.578125 -1.625 C 14.097656 -0.351562 12.148438 0.28125 9.734375 0.28125 C 7.085938 0.28125 5.003906 -0.609375 3.484375 -2.390625 C 1.972656 -4.171875 1.21875 -6.613281 1.21875 -9.71875 L 1.21875 -10.984375 C 1.21875 -12.960938 1.566406 -14.707031 2.265625 -16.21875 C 2.960938 -17.726562 3.960938 -18.882812 5.265625 -19.6875 C 6.566406 -20.5 8.078125 -20.90625 9.796875 -20.90625 C 12.171875 -20.90625 14.082031 -20.269531 15.53125 -19 C 16.988281 -17.726562 17.832031 -15.9375 18.0625 -13.625 L 13.8125 -13.625 C 13.707031 -14.957031 13.335938 -15.921875 12.703125 -16.515625 C 12.066406 -17.117188 11.097656 -17.421875 9.796875 -17.421875 C 8.378906 -17.421875 7.316406 -16.910156 6.609375 -15.890625 C 5.898438 -14.878906 5.539062 -13.304688 5.53125 -11.171875 L 5.53125 -9.625 C 5.53125 -7.394531 5.863281 -5.765625 6.53125 -4.734375 C 7.207031 -3.703125 8.273438 -3.1875 9.734375 -3.1875 C 11.046875 -3.1875 12.023438 -3.484375 12.671875 -4.078125 C 13.316406 -4.679688 13.6875 -5.613281 13.78125 -6.875 Z M 18.03125 -6.875 "/></g></g></g><g fill="#ffffff" fill-opacity="1"><g transform="translate(515.200061, 581.001783)"><g><path d="M 6.09375 -3.421875 L 15.109375 -3.421875 L 15.109375 0 L 1.84375 0 L 1.84375 -20.625 L 6.09375 -20.625 Z M 6.09375 -3.421875 "/></g></g></g><g fill="#ffffff" fill-opacity="1"><g transform="translate(512.797717, 524.368938)"><g><path d="M 18.625 0 L 14.375 0 L 14.375 -8.84375 L 6.09375 -8.84375 L 6.09375 0 L 1.84375 0 L 1.84375 -20.625 L 6.09375 -20.625 L 6.09375 -12.265625 L 14.375 -12.265625 L 14.375 -20.625 L 18.625 -20.625 Z M 18.625 0 "/></g></g></g><g fill="#ffffff" fill-opacity="1"><g transform="translate(513.793811, 467.73614)"><g><path d="M 1.84375 0 L 1.84375 -20.625 L 9.0625 -20.625 C 11.570312 -20.625 13.472656 -20.144531 14.765625 -19.1875 C 16.054688 -18.226562 16.703125 -16.820312 16.703125 -14.96875 C 16.703125 -13.957031 16.441406 -13.066406 15.921875 -12.296875 C 15.398438 -11.535156 14.675781 -10.972656 13.75 -10.609375 C 14.8125 -10.347656 15.644531 -9.816406 16.25 -9.015625 C 16.863281 -8.210938 17.171875 -7.226562 17.171875 -6.0625 C 17.171875 -4.082031 16.535156 -2.582031 15.265625 -1.5625 C 14.003906 -0.539062 12.203125 -0.0195312 9.859375 0 Z M 6.09375 -8.984375 L 6.09375 -3.421875 L 9.734375 -3.421875 C 10.734375 -3.421875 11.515625 -3.65625 12.078125 -4.125 C 12.640625 -4.601562 12.921875 -5.265625 12.921875 -6.109375 C 12.921875 -7.992188 11.941406 -8.953125 9.984375 -8.984375 Z M 6.09375 -11.984375 L 9.234375 -11.984375 C 11.378906 -12.023438 12.453125 -12.878906 12.453125 -14.546875 C 12.453125 -15.484375 12.179688 -16.15625 11.640625 -16.5625 C 11.097656 -16.976562 10.238281 -17.1875 9.0625 -17.1875 L 6.09375 -17.1875 Z M 6.09375 -11.984375 "/></g></g></g><g fill="#ffffff" fill-opacity="1"><g transform="translate(513.032092, 411.103329)"><g><path d="M 18.78125 -9.84375 C 18.78125 -7.8125 18.421875 -6.03125 17.703125 -4.5 C 16.992188 -2.96875 15.96875 -1.785156 14.625 -0.953125 C 13.289062 -0.128906 11.757812 0.28125 10.03125 0.28125 C 8.320312 0.28125 6.796875 -0.128906 5.453125 -0.953125 C 4.109375 -1.773438 3.066406 -2.945312 2.328125 -4.46875 C 1.597656 -6 1.226562 -7.753906 1.21875 -9.734375 L 1.21875 -10.75 C 1.21875 -12.78125 1.582031 -14.566406 2.3125 -16.109375 C 3.050781 -17.660156 4.085938 -18.847656 5.421875 -19.671875 C 6.753906 -20.492188 8.28125 -20.90625 10 -20.90625 C 11.71875 -20.90625 13.242188 -20.492188 14.578125 -19.671875 C 15.921875 -18.847656 16.957031 -17.660156 17.6875 -16.109375 C 18.414062 -14.566406 18.78125 -12.785156 18.78125 -10.765625 Z M 14.484375 -10.78125 C 14.484375 -12.945312 14.09375 -14.585938 13.3125 -15.703125 C 12.539062 -16.828125 11.4375 -17.390625 10 -17.390625 C 8.570312 -17.390625 7.472656 -16.832031 6.703125 -15.71875 C 5.929688 -14.613281 5.539062 -12.992188 5.53125 -10.859375 L 5.53125 -9.84375 C 5.53125 -7.738281 5.914062 -6.101562 6.6875 -4.9375 C 7.457031 -3.78125 8.570312 -3.203125 10.03125 -3.203125 C 11.457031 -3.203125 12.550781 -3.757812 13.3125 -4.875 C 14.082031 -6 14.472656 -7.632812 14.484375 -9.78125 Z M 14.484375 -10.78125 "/></g></g></g><g fill="#ffffff" fill-opacity="1"><g transform="translate(514.895373, 354.470481)"><g><path d="M 14.25 -8.9375 L 6.09375 -8.9375 L 6.09375 -3.421875 L 15.671875 -3.421875 L 15.671875 0 L 1.84375 0 L 1.84375 -20.625 L 15.640625 -20.625 L 15.640625 -17.1875 L 6.09375 -17.1875 L 6.09375 -12.265625 L 14.25 -12.265625 Z M 14.25 -8.9375 "/></g></g></g><g fill="#ffffff" fill-opacity="1"><g transform="translate(514.895373, 297.83766)"><g><path d="M 14.25 -8.9375 L 6.09375 -8.9375 L 6.09375 -3.421875 L 15.671875 -3.421875 L 15.671875 0 L 1.84375 0 L 1.84375 -20.625 L 15.640625 -20.625 L 15.640625 -17.1875 L 6.09375 -17.1875 L 6.09375 -12.265625 L 14.25 -12.265625 Z M 14.25 -8.9375 "/></g></g></g><g fill="#ffffff" fill-opacity="1"><g transform="translate(572.467006, 693.939369)"><g><path d="M 1.84375 0 L 1.84375 -20.625 L 8.1875 -20.625 C 10 -20.625 11.617188 -20.210938 13.046875 -19.390625 C 14.484375 -18.578125 15.601562 -17.414062 16.40625 -15.90625 C 17.207031 -14.40625 17.609375 -12.695312 17.609375 -10.78125 L 17.609375 -9.828125 C 17.609375 -7.910156 17.210938 -6.207031 16.421875 -4.71875 C 15.640625 -3.226562 14.53125 -2.070312 13.09375 -1.25 C 11.65625 -0.425781 10.035156 -0.0078125 8.234375 0 Z M 6.09375 -17.1875 L 6.09375 -3.421875 L 8.140625 -3.421875 C 9.804688 -3.421875 11.078125 -3.960938 11.953125 -5.046875 C 12.835938 -6.128906 13.285156 -7.679688 13.296875 -9.703125 L 13.296875 -10.796875 C 13.296875 -12.890625 12.863281 -14.476562 12 -15.5625 C 11.132812 -16.644531 9.863281 -17.1875 8.1875 -17.1875 Z M 6.09375 -17.1875 "/></g></g></g><g fill="#ffffff" fill-opacity="1"><g transform="translate(572.009975, 637.634628)"><g><path d="M 18.15625 -2.609375 C 17.394531 -1.691406 16.316406 -0.976562 14.921875 -0.46875 C 13.523438 0.03125 11.972656 0.28125 10.265625 0.28125 C 8.484375 0.28125 6.921875 -0.101562 5.578125 -0.875 C 4.234375 -1.65625 3.191406 -2.785156 2.453125 -4.265625 C 1.722656 -5.753906 1.347656 -7.5 1.328125 -9.5 L 1.328125 -10.90625 C 1.328125 -12.96875 1.675781 -14.75 2.375 -16.25 C 3.070312 -17.757812 4.070312 -18.910156 5.375 -19.703125 C 6.6875 -20.503906 8.21875 -20.90625 9.96875 -20.90625 C 12.414062 -20.90625 14.328125 -20.320312 15.703125 -19.15625 C 17.085938 -17.988281 17.90625 -16.289062 18.15625 -14.0625 L 14.03125 -14.0625 C 13.84375 -15.25 13.421875 -16.113281 12.765625 -16.65625 C 12.117188 -17.207031 11.234375 -17.484375 10.109375 -17.484375 C 8.660156 -17.484375 7.554688 -16.9375 6.796875 -15.84375 C 6.046875 -14.757812 5.664062 -13.148438 5.65625 -11.015625 L 5.65625 -9.6875 C 5.65625 -7.53125 6.066406 -5.894531 6.890625 -4.78125 C 7.710938 -3.675781 8.914062 -3.125 10.5 -3.125 C 12.09375 -3.125 13.226562 -3.46875 13.90625 -4.15625 L 13.90625 -7.703125 L 10.046875 -7.703125 L 10.046875 -10.84375 L 18.15625 -10.84375 Z M 18.15625 -2.609375 "/></g></g></g><g fill="#ffffff" fill-opacity="1"><g transform="translate(572.349818, 581.001783)"><g><path d="M 17.453125 -20.625 L 17.453125 -7.046875 C 17.453125 -4.785156 16.742188 -3 15.328125 -1.6875 C 13.921875 -0.375 11.992188 0.28125 9.546875 0.28125 C 7.140625 0.28125 5.226562 -0.351562 3.8125 -1.625 C 2.394531 -2.90625 1.671875 -4.660156 1.640625 -6.890625 L 1.640625 -20.625 L 5.890625 -20.625 L 5.890625 -7.015625 C 5.890625 -5.660156 6.210938 -4.671875 6.859375 -4.046875 C 7.503906 -3.429688 8.398438 -3.125 9.546875 -3.125 C 11.941406 -3.125 13.15625 -4.382812 13.1875 -6.90625 L 13.1875 -20.625 Z M 17.453125 -20.625 "/></g></g></g><g fill="#ffffff" fill-opacity="1"><g transform="translate(572.009975, 524.368938)"><g><path d="M 18.15625 -2.609375 C 17.394531 -1.691406 16.316406 -0.976562 14.921875 -0.46875 C 13.523438 0.03125 11.972656 0.28125 10.265625 0.28125 C 8.484375 0.28125 6.921875 -0.101562 5.578125 -0.875 C 4.234375 -1.65625 3.191406 -2.785156 2.453125 -4.265625 C 1.722656 -5.753906 1.347656 -7.5 1.328125 -9.5 L 1.328125 -10.90625 C 1.328125 -12.96875 1.675781 -14.75 2.375 -16.25 C 3.070312 -17.757812 4.070312 -18.910156 5.375 -19.703125 C 6.6875 -20.503906 8.21875 -20.90625 9.96875 -20.90625 C 12.414062 -20.90625 14.328125 -20.320312 15.703125 -19.15625 C 17.085938 -17.988281 17.90625 -16.289062 18.15625 -14.0625 L 14.03125 -14.0625 C 13.84375 -15.25 13.421875 -16.113281 12.765625 -16.65625 C 12.117188 -17.207031 11.234375 -17.484375 10.109375 -17.484375 C 8.660156 -17.484375 7.554688 -16.9375 6.796875 -15.84375 C 6.046875 -14.757812 5.664062 -13.148438 5.65625 -11.015625 L 5.65625 -9.6875 C 5.65625 -7.53125 6.066406 -5.894531 6.890625 -4.78125 C 7.710938 -3.675781 8.914062 -3.125 10.5 -3.125 C 12.09375 -3.125 13.226562 -3.46875 13.90625 -4.15625 L 13.90625 -7.703125 L 10.046875 -7.703125 L 10.046875 -10.84375 L 18.15625 -10.84375 Z M 18.15625 -2.609375 "/></g></g></g><g fill="#ffffff" fill-opacity="1"><g transform="translate(573.629574, 467.73614)"><g><path d="M 9.46875 -5.109375 L 14.140625 -20.625 L 18.875 -20.625 L 11.6875 0 L 7.25 0 L 0.09375 -20.625 L 4.8125 -20.625 Z M 9.46875 -5.109375 "/></g></g></g><g fill="#ffffff" fill-opacity="1"><g transform="translate(572.396693, 411.103329)"><g><path d="M 18.03125 -6.875 C 17.875 -4.65625 17.054688 -2.90625 15.578125 -1.625 C 14.097656 -0.351562 12.148438 0.28125 9.734375 0.28125 C 7.085938 0.28125 5.003906 -0.609375 3.484375 -2.390625 C 1.972656 -4.171875 1.21875 -6.613281 1.21875 -9.71875 L 1.21875 -10.984375 C 1.21875 -12.960938 1.566406 -14.707031 2.265625 -16.21875 C 2.960938 -17.726562 3.960938 -18.882812 5.265625 -19.6875 C 6.566406 -20.5 8.078125 -20.90625 9.796875 -20.90625 C 12.171875 -20.90625 14.082031 -20.269531 15.53125 -19 C 16.988281 -17.726562 17.832031 -15.9375 18.0625 -13.625 L 13.8125 -13.625 C 13.707031 -14.957031 13.335938 -15.921875 12.703125 -16.515625 C 12.066406 -17.117188 11.097656 -17.421875 9.796875 -17.421875 C 8.378906 -17.421875 7.316406 -16.910156 6.609375 -15.890625 C 5.898438 -14.878906 5.539062 -13.304688 5.53125 -11.171875 L 5.53125 -9.625 C 5.53125 -7.394531 5.863281 -5.765625 6.53125 -4.734375 C 7.207031 -3.703125 8.273438 -3.1875 9.734375 -3.1875 C 11.046875 -3.1875 12.023438 -3.484375 12.671875 -4.078125 C 13.316406 -4.679688 13.6875 -5.613281 13.78125 -6.875 Z M 18.03125 -6.875 "/></g></g></g><g fill="#ffffff" fill-opacity="1"><g transform="translate(571.646693, 354.470481)"><g><path d="M 18.609375 0 L 14.359375 0 L 6.09375 -13.578125 L 6.09375 0 L 1.84375 0 L 1.84375 -20.625 L 6.09375 -20.625 L 14.375 -7.03125 L 14.375 -20.625 L 18.609375 -20.625 Z M 18.609375 0 "/></g></g></g><g fill="#ffffff" fill-opacity="1"><g transform="translate(572.408412, 297.83766)"><g><path d="M 9.46875 -5.109375 L 14.140625 -20.625 L 18.875 -20.625 L 11.6875 0 L 7.25 0 L 0.09375 -20.625 L 4.8125 -20.625 Z M 9.46875 -5.109375 "/></g></g></g><g fill="#ffffff" fill-opacity="1"><g transform="translate(632.573596, 693.939369)"><g><path d="M 14.25 -8.9375 L 6.09375 -8.9375 L 6.09375 -3.421875 L 15.671875 -3.421875 L 15.671875 0 L 1.84375 0 L 1.84375 -20.625 L 15.640625 -20.625 L 15.640625 -17.1875 L 6.09375 -17.1875 L 6.09375 -12.265625 L 14.25 -12.265625 Z M 14.25 -8.9375 "/></g></g></g><g fill="#ffffff" fill-opacity="1"><g transform="translate(632.573596, 637.634628)"><g><path d="M 14.25 -8.9375 L 6.09375 -8.9375 L 6.09375 -3.421875 L 15.671875 -3.421875 L 15.671875 0 L 1.84375 0 L 1.84375 -20.625 L 15.640625 -20.625 L 15.640625 -17.1875 L 6.09375 -17.1875 L 6.09375 -12.265625 L 14.25 -12.265625 Z M 14.25 -8.9375 "/></g></g></g><g fill="#ffffff" fill-opacity="1"><g transform="translate(631.811877, 581.001783)"><g><path d="M 12.53125 -5.40625 C 12.53125 -6.207031 12.25 -6.820312 11.6875 -7.25 C 11.125 -7.6875 10.101562 -8.144531 8.625 -8.625 C 7.15625 -9.101562 5.988281 -9.570312 5.125 -10.03125 C 2.78125 -11.289062 1.609375 -12.992188 1.609375 -15.140625 C 1.609375 -16.253906 1.921875 -17.25 2.546875 -18.125 C 3.179688 -19 4.085938 -19.679688 5.265625 -20.171875 C 6.441406 -20.660156 7.757812 -20.90625 9.21875 -20.90625 C 10.695312 -20.90625 12.007812 -20.640625 13.15625 -20.109375 C 14.3125 -19.578125 15.207031 -18.820312 15.84375 -17.84375 C 16.476562 -16.875 16.796875 -15.769531 16.796875 -14.53125 L 12.546875 -14.53125 C 12.546875 -15.476562 12.25 -16.210938 11.65625 -16.734375 C 11.0625 -17.265625 10.226562 -17.53125 9.15625 -17.53125 C 8.113281 -17.53125 7.300781 -17.304688 6.71875 -16.859375 C 6.144531 -16.421875 5.859375 -15.84375 5.859375 -15.125 C 5.859375 -14.457031 6.195312 -13.894531 6.875 -13.4375 C 7.550781 -12.988281 8.546875 -12.566406 9.859375 -12.171875 C 12.273438 -11.441406 14.035156 -10.535156 15.140625 -9.453125 C 16.242188 -8.378906 16.796875 -7.039062 16.796875 -5.4375 C 16.796875 -3.65625 16.117188 -2.253906 14.765625 -1.234375 C 13.421875 -0.222656 11.609375 0.28125 9.328125 0.28125 C 7.734375 0.28125 6.285156 -0.00390625 4.984375 -0.578125 C 3.679688 -1.160156 2.6875 -1.957031 2 -2.96875 C 1.320312 -3.976562 0.984375 -5.148438 0.984375 -6.484375 L 5.234375 -6.484375 C 5.234375 -4.210938 6.597656 -3.078125 9.328125 -3.078125 C 10.335938 -3.078125 11.125 -3.28125 11.6875 -3.6875 C 12.25 -4.101562 12.53125 -4.675781 12.53125 -5.40625 Z M 12.53125 -5.40625 "/></g></g></g><g fill="#ffffff" fill-opacity="1"><g transform="translate(628.026721, 524.368938)"><g><path d="M 7.390625 -20.625 L 12.6875 -5.671875 L 17.96875 -20.625 L 23.546875 -20.625 L 23.546875 0 L 19.28125 0 L 19.28125 -5.640625 L 19.703125 -15.375 L 14.140625 0 L 11.21875 0 L 5.671875 -15.359375 L 6.09375 -5.640625 L 6.09375 0 L 1.84375 0 L 1.84375 -20.625 Z M 7.390625 -20.625 "/></g></g></g><g fill="#ffffff" fill-opacity="1"><g transform="translate(632.63219, 467.73614)"><g><path d="M 10.15625 -20.625 L 14.40625 -20.625 L 14.40625 -6.34375 C 14.40625 -5.03125 14.113281 -3.867188 13.53125 -2.859375 C 12.957031 -1.859375 12.140625 -1.082031 11.078125 -0.53125 C 10.023438 0.0078125 8.832031 0.28125 7.5 0.28125 C 5.3125 0.28125 3.609375 -0.269531 2.390625 -1.375 C 1.171875 -2.488281 0.5625 -4.0625 0.5625 -6.09375 L 4.84375 -6.09375 C 4.84375 -5.082031 5.054688 -4.332031 5.484375 -3.84375 C 5.910156 -3.363281 6.582031 -3.125 7.5 -3.125 C 8.3125 -3.125 8.957031 -3.398438 9.4375 -3.953125 C 9.914062 -4.515625 10.15625 -5.3125 10.15625 -6.34375 Z M 10.15625 -20.625 "/></g></g></g><g fill="#ffffff" fill-opacity="1"><g transform="translate(631.249377, 411.103329)"><g><path d="M 9.46875 -5.109375 L 14.140625 -20.625 L 18.875 -20.625 L 11.6875 0 L 7.25 0 L 0.09375 -20.625 L 4.8125 -20.625 Z M 9.46875 -5.109375 "/></g></g></g><g fill="#ffffff" fill-opacity="1"><g transform="translate(630.85094, 354.470481)"><g><path d="M 18.15625 -2.609375 C 17.394531 -1.691406 16.316406 -0.976562 14.921875 -0.46875 C 13.523438 0.03125 11.972656 0.28125 10.265625 0.28125 C 8.484375 0.28125 6.921875 -0.101562 5.578125 -0.875 C 4.234375 -1.65625 3.191406 -2.785156 2.453125 -4.265625 C 1.722656 -5.753906 1.347656 -7.5 1.328125 -9.5 L 1.328125 -10.90625 C 1.328125 -12.96875 1.675781 -14.75 2.375 -16.25 C 3.070312 -17.757812 4.070312 -18.910156 5.375 -19.703125 C 6.6875 -20.503906 8.21875 -20.90625 9.96875 -20.90625 C 12.414062 -20.90625 14.328125 -20.320312 15.703125 -19.15625 C 17.085938 -17.988281 17.90625 -16.289062 18.15625 -14.0625 L 14.03125 -14.0625 C 13.84375 -15.25 13.421875 -16.113281 12.765625 -16.65625 C 12.117188 -17.207031 11.234375 -17.484375 10.109375 -17.484375 C 8.660156 -17.484375 7.554688 -16.9375 6.796875 -15.84375 C 6.046875 -14.757812 5.664062 -13.148438 5.65625 -11.015625 L 5.65625 -9.6875 C 5.65625 -7.53125 6.066406 -5.894531 6.890625 -4.78125 C 7.710938 -3.675781 8.914062 -3.125 10.5 -3.125 C 12.09375 -3.125 13.226562 -3.46875 13.90625 -4.15625 L 13.90625 -7.703125 L 10.046875 -7.703125 L 10.046875 -10.84375 L 18.15625 -10.84375 Z M 18.15625 -2.609375 "/></g></g></g><g fill="#ffffff" fill-opacity="1"><g transform="translate(631.765002, 297.83766)"><g><path d="M 8.953125 -11.328125 L 13.25 -20.625 L 17.890625 -20.625 L 11.125 -7.484375 L 11.125 0 L 6.796875 0 L 6.796875 -7.484375 L 0.03125 -20.625 L 4.6875 -20.625 Z M 8.953125 -11.328125 "/></g></g></g><g fill="#ffffff" fill-opacity="1"><g transform="translate(690.030031, 693.939369)"><g><path d="M 17.453125 -20.625 L 17.453125 -7.046875 C 17.453125 -4.785156 16.742188 -3 15.328125 -1.6875 C 13.921875 -0.375 11.992188 0.28125 9.546875 0.28125 C 7.140625 0.28125 5.226562 -0.351562 3.8125 -1.625 C 2.394531 -2.90625 1.671875 -4.660156 1.640625 -6.890625 L 1.640625 -20.625 L 5.890625 -20.625 L 5.890625 -7.015625 C 5.890625 -5.660156 6.210938 -4.671875 6.859375 -4.046875 C 7.503906 -3.429688 8.398438 -3.125 9.546875 -3.125 C 11.941406 -3.125 13.15625 -4.382812 13.1875 -6.90625 L 13.1875 -20.625 Z M 17.453125 -20.625 "/></g></g></g><g fill="#ffffff" fill-opacity="1"><g transform="translate(690.651125, 637.634628)"><g><path d="M 12.53125 -5.40625 C 12.53125 -6.207031 12.25 -6.820312 11.6875 -7.25 C 11.125 -7.6875 10.101562 -8.144531 8.625 -8.625 C 7.15625 -9.101562 5.988281 -9.570312 5.125 -10.03125 C 2.78125 -11.289062 1.609375 -12.992188 1.609375 -15.140625 C 1.609375 -16.253906 1.921875 -17.25 2.546875 -18.125 C 3.179688 -19 4.085938 -19.679688 5.265625 -20.171875 C 6.441406 -20.660156 7.757812 -20.90625 9.21875 -20.90625 C 10.695312 -20.90625 12.007812 -20.640625 13.15625 -20.109375 C 14.3125 -19.578125 15.207031 -18.820312 15.84375 -17.84375 C 16.476562 -16.875 16.796875 -15.769531 16.796875 -14.53125 L 12.546875 -14.53125 C 12.546875 -15.476562 12.25 -16.210938 11.65625 -16.734375 C 11.0625 -17.265625 10.226562 -17.53125 9.15625 -17.53125 C 8.113281 -17.53125 7.300781 -17.304688 6.71875 -16.859375 C 6.144531 -16.421875 5.859375 -15.84375 5.859375 -15.125 C 5.859375 -14.457031 6.195312 -13.894531 6.875 -13.4375 C 7.550781 -12.988281 8.546875 -12.566406 9.859375 -12.171875 C 12.273438 -11.441406 14.035156 -10.535156 15.140625 -9.453125 C 16.242188 -8.378906 16.796875 -7.039062 16.796875 -5.4375 C 16.796875 -3.65625 16.117188 -2.253906 14.765625 -1.234375 C 13.421875 -0.222656 11.609375 0.28125 9.328125 0.28125 C 7.734375 0.28125 6.285156 -0.00390625 4.984375 -0.578125 C 3.679688 -1.160156 2.6875 -1.957031 2 -2.96875 C 1.320312 -3.976562 0.984375 -5.148438 0.984375 -6.484375 L 5.234375 -6.484375 C 5.234375 -4.210938 6.597656 -3.078125 9.328125 -3.078125 C 10.335938 -3.078125 11.125 -3.28125 11.6875 -3.6875 C 12.25 -4.101562 12.53125 -4.675781 12.53125 -5.40625 Z M 12.53125 -5.40625 "/></g></g></g><g fill="#ffffff" fill-opacity="1"><g transform="translate(690.60425, 581.001783)"><g><path d="M 17.375 -17.1875 L 11.046875 -17.1875 L 11.046875 0 L 6.796875 0 L 6.796875 -17.1875 L 0.5625 -17.1875 L 0.5625 -20.625 L 17.375 -20.625 Z M 17.375 -17.1875 "/></g></g></g><g fill="#ffffff" fill-opacity="1"><g transform="translate(689.807375, 524.368938)"><g><path d="M 13.484375 -4.25 L 6.03125 -4.25 L 4.625 0 L 0.09375 0 L 7.78125 -20.625 L 11.71875 -20.625 L 19.4375 0 L 14.921875 0 Z M 7.1875 -7.6875 L 12.34375 -7.6875 L 9.75 -15.421875 Z M 7.1875 -7.6875 "/></g></g></g><g fill="#ffffff" fill-opacity="1"><g transform="translate(690.60425, 467.73614)"><g><path d="M 8.953125 -11.328125 L 13.25 -20.625 L 17.890625 -20.625 L 11.125 -7.484375 L 11.125 0 L 6.796875 0 L 6.796875 -7.484375 L 0.03125 -20.625 L 4.6875 -20.625 Z M 8.953125 -11.328125 "/></g></g></g><g fill="#ffffff" fill-opacity="1"><g transform="translate(690.60425, 411.103329)"><g><path d="M 17.375 -17.1875 L 11.046875 -17.1875 L 11.046875 0 L 6.796875 0 L 6.796875 -17.1875 L 0.5625 -17.1875 L 0.5625 -20.625 L 17.375 -20.625 Z M 17.375 -17.1875 "/></g></g></g><g fill="#ffffff" fill-opacity="1"><g transform="translate(689.561281, 354.470481)"><g><path d="M 18.78125 -9.84375 C 18.78125 -7.8125 18.421875 -6.03125 17.703125 -4.5 C 16.992188 -2.96875 15.96875 -1.785156 14.625 -0.953125 C 13.289062 -0.128906 11.757812 0.28125 10.03125 0.28125 C 8.320312 0.28125 6.796875 -0.128906 5.453125 -0.953125 C 4.109375 -1.773438 3.066406 -2.945312 2.328125 -4.46875 C 1.597656 -6 1.226562 -7.753906 1.21875 -9.734375 L 1.21875 -10.75 C 1.21875 -12.78125 1.582031 -14.566406 2.3125 -16.109375 C 3.050781 -17.660156 4.085938 -18.847656 5.421875 -19.671875 C 6.753906 -20.492188 8.28125 -20.90625 10 -20.90625 C 11.71875 -20.90625 13.242188 -20.492188 14.578125 -19.671875 C 15.921875 -18.847656 16.957031 -17.660156 17.6875 -16.109375 C 18.414062 -14.566406 18.78125 -12.785156 18.78125 -10.765625 Z M 14.484375 -10.78125 C 14.484375 -12.945312 14.09375 -14.585938 13.3125 -15.703125 C 12.539062 -16.828125 11.4375 -17.390625 10 -17.390625 C 8.570312 -17.390625 7.472656 -16.832031 6.703125 -15.71875 C 5.929688 -14.613281 5.539062 -12.992188 5.53125 -10.859375 L 5.53125 -9.84375 C 5.53125 -7.738281 5.914062 -6.101562 6.6875 -4.9375 C 7.457031 -3.78125 8.570312 -3.203125 10.03125 -3.203125 C 11.457031 -3.203125 12.550781 -3.757812 13.3125 -4.875 C 14.082031 -6 14.472656 -7.632812 14.484375 -9.78125 Z M 14.484375 -10.78125 "/></g></g></g><g fill="#ffffff" fill-opacity="1"><g transform="translate(690.311281, 297.83766)"><g><path d="M 9.484375 -7.546875 L 6.09375 -7.546875 L 6.09375 0 L 1.84375 0 L 1.84375 -20.625 L 9.5 -20.625 C 11.9375 -20.625 13.816406 -20.082031 15.140625 -19 C 16.460938 -17.914062 17.125 -16.378906 17.125 -14.390625 C 17.125 -12.984375 16.816406 -11.8125 16.203125 -10.875 C 15.597656 -9.9375 14.675781 -9.1875 13.4375 -8.625 L 17.90625 -0.203125 L 17.90625 0 L 13.34375 0 Z M 6.09375 -11 L 9.515625 -11 C 10.585938 -11 11.414062 -11.269531 12 -11.8125 C 12.582031 -12.351562 12.875 -13.097656 12.875 -14.046875 C 12.875 -15.023438 12.597656 -15.789062 12.046875 -16.34375 C 11.492188 -16.90625 10.644531 -17.1875 9.5 -17.1875 L 6.09375 -17.1875 Z M 6.09375 -11 "/></g></g></g><g fill="#ffffff" fill-opacity="1"><g transform="translate(395.636408, 693.939369)"><g><path d="M 6.09375 -7.265625 L 6.09375 0 L 1.84375 0 L 1.84375 -20.625 L 9.890625 -20.625 C 11.441406 -20.625 12.800781 -20.335938 13.96875 -19.765625 C 15.144531 -19.203125 16.050781 -18.398438 16.6875 -17.359375 C 17.320312 -16.316406 17.640625 -15.128906 17.640625 -13.796875 C 17.640625 -11.773438 16.945312 -10.179688 15.5625 -9.015625 C 14.175781 -7.847656 12.257812 -7.265625 9.8125 -7.265625 Z M 6.09375 -10.703125 L 9.890625 -10.703125 C 11.015625 -10.703125 11.867188 -10.96875 12.453125 -11.5 C 13.046875 -12.03125 13.34375 -12.785156 13.34375 -13.765625 C 13.34375 -14.773438 13.046875 -15.59375 12.453125 -16.21875 C 11.859375 -16.84375 11.035156 -17.164062 9.984375 -17.1875 L 6.09375 -17.1875 Z M 6.09375 -10.703125 "/></g></g></g><g fill="#ffffff" fill-opacity="1"><g transform="translate(395.741877, 637.634628)"><g><path d="M 1.84375 0 L 1.84375 -20.625 L 9.0625 -20.625 C 11.570312 -20.625 13.472656 -20.144531 14.765625 -19.1875 C 16.054688 -18.226562 16.703125 -16.820312 16.703125 -14.96875 C 16.703125 -13.957031 16.441406 -13.066406 15.921875 -12.296875 C 15.398438 -11.535156 14.675781 -10.972656 13.75 -10.609375 C 14.8125 -10.347656 15.644531 -9.816406 16.25 -9.015625 C 16.863281 -8.210938 17.171875 -7.226562 17.171875 -6.0625 C 17.171875 -4.082031 16.535156 -2.582031 15.265625 -1.5625 C 14.003906 -0.539062 12.203125 -0.0195312 9.859375 0 Z M 6.09375 -8.984375 L 6.09375 -3.421875 L 9.734375 -3.421875 C 10.734375 -3.421875 11.515625 -3.65625 12.078125 -4.125 C 12.640625 -4.601562 12.921875 -5.265625 12.921875 -6.109375 C 12.921875 -7.992188 11.941406 -8.953125 9.984375 -8.984375 Z M 6.09375 -11.984375 L 9.234375 -11.984375 C 11.378906 -12.023438 12.453125 -12.878906 12.453125 -14.546875 C 12.453125 -15.484375 12.179688 -16.15625 11.640625 -16.5625 C 11.097656 -16.976562 10.238281 -17.1875 9.0625 -17.1875 L 6.09375 -17.1875 Z M 6.09375 -11.984375 "/></g></g></g><g fill="#ffffff" fill-opacity="1"><g transform="translate(394.980158, 581.001783)"><g><path d="M 18.78125 -9.84375 C 18.78125 -7.8125 18.421875 -6.03125 17.703125 -4.5 C 16.992188 -2.96875 15.96875 -1.785156 14.625 -0.953125 C 13.289062 -0.128906 11.757812 0.28125 10.03125 0.28125 C 8.320312 0.28125 6.796875 -0.128906 5.453125 -0.953125 C 4.109375 -1.773438 3.066406 -2.945312 2.328125 -4.46875 C 1.597656 -6 1.226562 -7.753906 1.21875 -9.734375 L 1.21875 -10.75 C 1.21875 -12.78125 1.582031 -14.566406 2.3125 -16.109375 C 3.050781 -17.660156 4.085938 -18.847656 5.421875 -19.671875 C 6.753906 -20.492188 8.28125 -20.90625 10 -20.90625 C 11.71875 -20.90625 13.242188 -20.492188 14.578125 -19.671875 C 15.921875 -18.847656 16.957031 -17.660156 17.6875 -16.109375 C 18.414062 -14.566406 18.78125 -12.785156 18.78125 -10.765625 Z M 14.484375 -10.78125 C 14.484375 -12.945312 14.09375 -14.585938 13.3125 -15.703125 C 12.539062 -16.828125 11.4375 -17.390625 10 -17.390625 C 8.570312 -17.390625 7.472656 -16.832031 6.703125 -15.71875 C 5.929688 -14.613281 5.539062 -12.992188 5.53125 -10.859375 L 5.53125 -9.84375 C 5.53125 -7.738281 5.914062 -6.101562 6.6875 -4.9375 C 7.457031 -3.78125 8.570312 -3.203125 10.03125 -3.203125 C 11.457031 -3.203125 12.550781 -3.757812 13.3125 -4.875 C 14.082031 -6 14.472656 -7.632812 14.484375 -9.78125 Z M 14.484375 -10.78125 "/></g></g></g><g fill="#ffffff" fill-opacity="1"><g transform="translate(396.023127, 524.368938)"><g><path d="M 17.375 -17.1875 L 11.046875 -17.1875 L 11.046875 0 L 6.796875 0 L 6.796875 -17.1875 L 0.5625 -17.1875 L 0.5625 -20.625 L 17.375 -20.625 Z M 17.375 -17.1875 "/></g></g></g><g fill="#ffffff" fill-opacity="1"><g transform="translate(395.484065, 467.73614)"><g><path d="M 2.390625 0 L 2.390625 -20.625 L 8.21875 -20.625 C 10.007812 -20.625 11.59375 -20.226562 12.96875 -19.4375 C 14.351562 -18.644531 15.421875 -17.515625 16.171875 -16.046875 C 16.921875 -14.585938 17.300781 -12.910156 17.3125 -11.015625 L 17.3125 -9.6875 C 17.3125 -7.738281 16.9375 -6.03125 16.1875 -4.5625 C 15.4375 -3.101562 14.363281 -1.984375 12.96875 -1.203125 C 11.570312 -0.421875 9.953125 -0.0195312 8.109375 0 Z M 5.109375 -18.390625 L 5.109375 -2.21875 L 7.96875 -2.21875 C 10.070312 -2.21875 11.707031 -2.867188 12.875 -4.171875 C 14.039062 -5.484375 14.625 -7.34375 14.625 -9.75 L 14.625 -10.953125 C 14.625 -13.296875 14.070312 -15.113281 12.96875 -16.40625 C 11.863281 -17.707031 10.300781 -18.367188 8.28125 -18.390625 Z M 5.109375 -18.390625 "/></g></g></g><g fill="#ffffff" fill-opacity="1"><g transform="translate(395.027033, 411.103329)"><g><path d="M 18.265625 -9.640625 C 18.265625 -7.617188 17.921875 -5.851562 17.234375 -4.34375 C 16.554688 -2.84375 15.59375 -1.695312 14.34375 -0.90625 C 13.101562 -0.113281 11.648438 0.28125 9.984375 0.28125 C 8.359375 0.28125 6.914062 -0.113281 5.65625 -0.90625 C 4.40625 -1.707031 3.429688 -2.847656 2.734375 -4.328125 C 2.046875 -5.804688 1.691406 -7.519531 1.671875 -9.46875 L 1.671875 -10.953125 C 1.671875 -12.929688 2.015625 -14.679688 2.703125 -16.203125 C 3.390625 -17.722656 4.363281 -18.882812 5.625 -19.6875 C 6.882812 -20.5 8.328125 -20.90625 9.953125 -20.90625 C 11.609375 -20.90625 13.066406 -20.503906 14.328125 -19.703125 C 15.585938 -18.910156 16.554688 -17.753906 17.234375 -16.234375 C 17.921875 -14.722656 18.265625 -12.960938 18.265625 -10.953125 Z M 15.5625 -10.984375 C 15.5625 -13.429688 15.066406 -15.304688 14.078125 -16.609375 C 13.097656 -17.921875 11.722656 -18.578125 9.953125 -18.578125 C 8.234375 -18.578125 6.878906 -17.921875 5.890625 -16.609375 C 4.910156 -15.304688 4.40625 -13.492188 4.375 -11.171875 L 4.375 -9.640625 C 4.375 -7.273438 4.875 -5.414062 5.875 -4.0625 C 6.875 -2.707031 8.242188 -2.03125 9.984375 -2.03125 C 11.742188 -2.03125 13.101562 -2.664062 14.0625 -3.9375 C 15.03125 -5.21875 15.53125 -7.054688 15.5625 -9.453125 Z M 15.5625 -10.984375 "/></g></g></g><g fill="#ffffff" fill-opacity="1"><g transform="translate(397.054377, 354.470481)"><g><path d="M 14.25 -8.4375 L 6.09375 -8.4375 L 6.09375 0 L 1.84375 0 L 1.84375 -20.625 L 15.265625 -20.625 L 15.265625 -17.1875 L 6.09375 -17.1875 L 6.09375 -11.859375 L 14.25 -11.859375 Z M 14.25 -8.4375 "/></g></g></g><g fill="#ffffff" fill-opacity="1"><g transform="translate(396.398127, 297.83766)"><g><path d="M 8.46875 -9.1875 C 6.132812 -9.863281 4.4375 -10.691406 3.375 -11.671875 C 2.3125 -12.648438 1.78125 -13.851562 1.78125 -15.28125 C 1.78125 -16.90625 2.429688 -18.25 3.734375 -19.3125 C 5.035156 -20.375 6.722656 -20.90625 8.796875 -20.90625 C 10.210938 -20.90625 11.472656 -20.628906 12.578125 -20.078125 C 13.691406 -19.535156 14.550781 -18.78125 15.15625 -17.8125 C 15.769531 -16.851562 16.078125 -15.800781 16.078125 -14.65625 L 13.34375 -14.65625 C 13.34375 -15.90625 12.945312 -16.882812 12.15625 -17.59375 C 11.363281 -18.3125 10.242188 -18.671875 8.796875 -18.671875 C 7.453125 -18.671875 6.40625 -18.375 5.65625 -17.78125 C 4.90625 -17.195312 4.53125 -16.378906 4.53125 -15.328125 C 4.53125 -14.484375 4.882812 -13.769531 5.59375 -13.1875 C 6.3125 -12.613281 7.523438 -12.082031 9.234375 -11.59375 C 10.953125 -11.113281 12.296875 -10.582031 13.265625 -10 C 14.234375 -9.425781 14.953125 -8.75 15.421875 -7.96875 C 15.890625 -7.195312 16.125 -6.285156 16.125 -5.234375 C 16.125 -3.566406 15.472656 -2.226562 14.171875 -1.21875 C 12.867188 -0.21875 11.125 0.28125 8.9375 0.28125 C 7.519531 0.28125 6.195312 0.0078125 4.96875 -0.53125 C 3.738281 -1.070312 2.789062 -1.8125 2.125 -2.75 C 1.46875 -3.695312 1.140625 -4.773438 1.140625 -5.984375 L 3.875 -5.984375 C 3.875 -4.734375 4.332031 -3.742188 5.25 -3.015625 C 6.164062 -2.296875 7.394531 -1.9375 8.9375 -1.9375 C 10.375 -1.9375 11.472656 -2.226562 12.234375 -2.8125 C 13.003906 -3.40625 13.390625 -4.207031 13.390625 -5.21875 C 13.390625 -6.226562 13.035156 -7.007812 12.328125 -7.5625 C 11.617188 -8.113281 10.332031 -8.65625 8.46875 -9.1875 Z M 8.46875 -9.1875 "/></g></g></g><g fill="#ffffff" fill-opacity="1"><g transform="translate(218.968221, 693.939369)"><g><path d="M 18.15625 -2.609375 C 17.394531 -1.691406 16.316406 -0.976562 14.921875 -0.46875 C 13.523438 0.03125 11.972656 0.28125 10.265625 0.28125 C 8.484375 0.28125 6.921875 -0.101562 5.578125 -0.875 C 4.234375 -1.65625 3.191406 -2.785156 2.453125 -4.265625 C 1.722656 -5.753906 1.347656 -7.5 1.328125 -9.5 L 1.328125 -10.90625 C 1.328125 -12.96875 1.675781 -14.75 2.375 -16.25 C 3.070312 -17.757812 4.070312 -18.910156 5.375 -19.703125 C 6.6875 -20.503906 8.21875 -20.90625 9.96875 -20.90625 C 12.414062 -20.90625 14.328125 -20.320312 15.703125 -19.15625 C 17.085938 -17.988281 17.90625 -16.289062 18.15625 -14.0625 L 14.03125 -14.0625 C 13.84375 -15.25 13.421875 -16.113281 12.765625 -16.65625 C 12.117188 -17.207031 11.234375 -17.484375 10.109375 -17.484375 C 8.660156 -17.484375 7.554688 -16.9375 6.796875 -15.84375 C 6.046875 -14.757812 5.664062 -13.148438 5.65625 -11.015625 L 5.65625 -9.6875 C 5.65625 -7.53125 6.066406 -5.894531 6.890625 -4.78125 C 7.710938 -3.675781 8.914062 -3.125 10.5 -3.125 C 12.09375 -3.125 13.226562 -3.46875 13.90625 -4.15625 L 13.90625 -7.703125 L 10.046875 -7.703125 L 10.046875 -10.84375 L 18.15625 -10.84375 Z M 18.15625 -2.609375 "/></g></g></g><g fill="#ffffff" fill-opacity="1"><g transform="translate(219.636189, 637.634628)"><g><path d="M 9.21875 -13.515625 L 13.09375 -20.625 L 17.984375 -20.625 L 11.96875 -10.40625 L 18.140625 0 L 13.1875 0 L 9.21875 -7.21875 L 5.25 0 L 0.3125 0 L 6.46875 -10.40625 L 0.46875 -20.625 L 5.359375 -20.625 Z M 9.21875 -13.515625 "/></g></g></g><g fill="#ffffff" fill-opacity="1"><g transform="translate(218.593221, 581.001783)"><g><path d="M 18.625 0 L 14.375 0 L 14.375 -8.84375 L 6.09375 -8.84375 L 6.09375 0 L 1.84375 0 L 1.84375 -20.625 L 6.09375 -20.625 L 6.09375 -12.265625 L 14.375 -12.265625 L 14.375 -20.625 L 18.625 -20.625 Z M 18.625 0 "/></g></g></g><g fill="#ffffff" fill-opacity="1"><g transform="translate(218.827596, 524.368938)"><g><path d="M 18.78125 -9.84375 C 18.78125 -7.8125 18.421875 -6.03125 17.703125 -4.5 C 16.992188 -2.96875 15.96875 -1.785156 14.625 -0.953125 C 13.289062 -0.128906 11.757812 0.28125 10.03125 0.28125 C 8.320312 0.28125 6.796875 -0.128906 5.453125 -0.953125 C 4.109375 -1.773438 3.066406 -2.945312 2.328125 -4.46875 C 1.597656 -6 1.226562 -7.753906 1.21875 -9.734375 L 1.21875 -10.75 C 1.21875 -12.78125 1.582031 -14.566406 2.3125 -16.109375 C 3.050781 -17.660156 4.085938 -18.847656 5.421875 -19.671875 C 6.753906 -20.492188 8.28125 -20.90625 10 -20.90625 C 11.71875 -20.90625 13.242188 -20.492188 14.578125 -19.671875 C 15.921875 -18.847656 16.957031 -17.660156 17.6875 -16.109375 C 18.414062 -14.566406 18.78125 -12.785156 18.78125 -10.765625 Z M 14.484375 -10.78125 C 14.484375 -12.945312 14.09375 -14.585938 13.3125 -15.703125 C 12.539062 -16.828125 11.4375 -17.390625 10 -17.390625 C 8.570312 -17.390625 7.472656 -16.832031 6.703125 -15.71875 C 5.929688 -14.613281 5.539062 -12.992188 5.53125 -10.859375 L 5.53125 -9.84375 C 5.53125 -7.738281 5.914062 -6.101562 6.6875 -4.9375 C 7.457031 -3.78125 8.570312 -3.203125 10.03125 -3.203125 C 11.457031 -3.203125 12.550781 -3.757812 13.3125 -4.875 C 14.082031 -6 14.472656 -7.632812 14.484375 -9.78125 Z M 14.484375 -10.78125 "/></g></g></g><g fill="#ffffff" fill-opacity="1"><g transform="translate(220.901814, 467.73614)"><g><path d="M 14.25 -8.4375 L 6.09375 -8.4375 L 6.09375 0 L 1.84375 0 L 1.84375 -20.625 L 15.265625 -20.625 L 15.265625 -17.1875 L 6.09375 -17.1875 L 6.09375 -11.859375 L 14.25 -11.859375 Z M 14.25 -8.4375 "/></g></g></g><g fill="#ffffff" fill-opacity="1"><g transform="translate(218.827596, 411.103329)"><g><path d="M 18.78125 -9.84375 C 18.78125 -7.8125 18.421875 -6.03125 17.703125 -4.5 C 16.992188 -2.96875 15.96875 -1.785156 14.625 -0.953125 C 13.289062 -0.128906 11.757812 0.28125 10.03125 0.28125 C 8.320312 0.28125 6.796875 -0.128906 5.453125 -0.953125 C 4.109375 -1.773438 3.066406 -2.945312 2.328125 -4.46875 C 1.597656 -6 1.226562 -7.753906 1.21875 -9.734375 L 1.21875 -10.75 C 1.21875 -12.78125 1.582031 -14.566406 2.3125 -16.109375 C 3.050781 -17.660156 4.085938 -18.847656 5.421875 -19.671875 C 6.753906 -20.492188 8.28125 -20.90625 10 -20.90625 C 11.71875 -20.90625 13.242188 -20.492188 14.578125 -19.671875 C 15.921875 -18.847656 16.957031 -17.660156 17.6875 -16.109375 C 18.414062 -14.566406 18.78125 -12.785156 18.78125 -10.765625 Z M 14.484375 -10.78125 C 14.484375 -12.945312 14.09375 -14.585938 13.3125 -15.703125 C 12.539062 -16.828125 11.4375 -17.390625 10 -17.390625 C 8.570312 -17.390625 7.472656 -16.832031 6.703125 -15.71875 C 5.929688 -14.613281 5.539062 -12.992188 5.53125 -10.859375 L 5.53125 -9.84375 C 5.53125 -7.738281 5.914062 -6.101562 6.6875 -4.9375 C 7.457031 -3.78125 8.570312 -3.203125 10.03125 -3.203125 C 11.457031 -3.203125 12.550781 -3.757812 13.3125 -4.875 C 14.082031 -6 14.472656 -7.632812 14.484375 -9.78125 Z M 14.484375 -10.78125 "/></g></g></g><g fill="#ffffff" fill-opacity="1"><g transform="translate(216.155721, 354.470481)"><g><path d="M 17.90625 -5.953125 L 20.6875 -20.625 L 24.921875 -20.625 L 20.34375 0 L 16.0625 0 L 12.703125 -13.796875 L 9.34375 0 L 5.078125 0 L 0.5 -20.625 L 4.734375 -20.625 L 7.515625 -5.984375 L 10.921875 -20.625 L 14.515625 -20.625 Z M 17.90625 -5.953125 "/></g></g></g><g fill="#ffffff" fill-opacity="1"><g transform="translate(218.968221, 297.83766)"><g><path d="M 18.15625 -2.609375 C 17.394531 -1.691406 16.316406 -0.976562 14.921875 -0.46875 C 13.523438 0.03125 11.972656 0.28125 10.265625 0.28125 C 8.484375 0.28125 6.921875 -0.101562 5.578125 -0.875 C 4.234375 -1.65625 3.191406 -2.785156 2.453125 -4.265625 C 1.722656 -5.753906 1.347656 -7.5 1.328125 -9.5 L 1.328125 -10.90625 C 1.328125 -12.96875 1.675781 -14.75 2.375 -16.25 C 3.070312 -17.757812 4.070312 -18.910156 5.375 -19.703125 C 6.6875 -20.503906 8.21875 -20.90625 9.96875 -20.90625 C 12.414062 -20.90625 14.328125 -20.320312 15.703125 -19.15625 C 17.085938 -17.988281 17.90625 -16.289062 18.15625 -14.0625 L 14.03125 -14.0625 C 13.84375 -15.25 13.421875 -16.113281 12.765625 -16.65625 C 12.117188 -17.207031 11.234375 -17.484375 10.109375 -17.484375 C 8.660156 -17.484375 7.554688 -16.9375 6.796875 -15.84375 C 6.046875 -14.757812 5.664062 -13.148438 5.65625 -11.015625 L 5.65625 -9.6875 C 5.65625 -7.53125 6.066406 -5.894531 6.890625 -4.78125 C 7.710938 -3.675781 8.914062 -3.125 10.5 -3.125 C 12.09375 -3.125 13.226562 -3.46875 13.90625 -4.15625 L 13.90625 -7.703125 L 10.046875 -7.703125 L 10.046875 -10.84375 L 18.15625 -10.84375 Z M 18.15625 -2.609375 "/></g></g></g><g fill="#ffffff" fill-opacity="1"><g transform="translate(160.577456, 693.939369)"><g><path d="M 1.84375 0 L 1.84375 -20.625 L 8.1875 -20.625 C 10 -20.625 11.617188 -20.210938 13.046875 -19.390625 C 14.484375 -18.578125 15.601562 -17.414062 16.40625 -15.90625 C 17.207031 -14.40625 17.609375 -12.695312 17.609375 -10.78125 L 17.609375 -9.828125 C 17.609375 -7.910156 17.210938 -6.207031 16.421875 -4.71875 C 15.640625 -3.226562 14.53125 -2.070312 13.09375 -1.25 C 11.65625 -0.425781 10.035156 -0.0078125 8.234375 0 Z M 6.09375 -17.1875 L 6.09375 -3.421875 L 8.140625 -3.421875 C 9.804688 -3.421875 11.078125 -3.960938 11.953125 -5.046875 C 12.835938 -6.128906 13.285156 -7.679688 13.296875 -9.703125 L 13.296875 -10.796875 C 13.296875 -12.890625 12.863281 -14.476562 12 -15.5625 C 11.132812 -16.644531 9.863281 -17.1875 8.1875 -17.1875 Z M 6.09375 -17.1875 "/></g></g></g><g fill="#ffffff" fill-opacity="1"><g transform="translate(161.8548, 637.634628)"><g><path d="M 14.25 -8.9375 L 6.09375 -8.9375 L 6.09375 -3.421875 L 15.671875 -3.421875 L 15.671875 0 L 1.84375 0 L 1.84375 -20.625 L 15.640625 -20.625 L 15.640625 -17.1875 L 6.09375 -17.1875 L 6.09375 -12.265625 L 14.25 -12.265625 Z M 14.25 -8.9375 "/></g></g></g><g fill="#ffffff" fill-opacity="1"><g transform="translate(161.8548, 581.001783)"><g><path d="M 14.25 -8.9375 L 6.09375 -8.9375 L 6.09375 -3.421875 L 15.671875 -3.421875 L 15.671875 0 L 1.84375 0 L 1.84375 -20.625 L 15.640625 -20.625 L 15.640625 -17.1875 L 6.09375 -17.1875 L 6.09375 -12.265625 L 14.25 -12.265625 Z M 14.25 -8.9375 "/></g></g></g><g fill="#ffffff" fill-opacity="1"><g transform="translate(160.753238, 524.368938)"><g><path d="M 9.484375 -7.546875 L 6.09375 -7.546875 L 6.09375 0 L 1.84375 0 L 1.84375 -20.625 L 9.5 -20.625 C 11.9375 -20.625 13.816406 -20.082031 15.140625 -19 C 16.460938 -17.914062 17.125 -16.378906 17.125 -14.390625 C 17.125 -12.984375 16.816406 -11.8125 16.203125 -10.875 C 15.597656 -9.9375 14.675781 -9.1875 13.4375 -8.625 L 17.90625 -0.203125 L 17.90625 0 L 13.34375 0 Z M 6.09375 -11 L 9.515625 -11 C 10.585938 -11 11.414062 -11.269531 12 -11.8125 C 12.582031 -12.351562 12.875 -13.097656 12.875 -14.046875 C 12.875 -15.023438 12.597656 -15.789062 12.046875 -16.34375 C 11.492188 -16.90625 10.644531 -17.1875 9.5 -17.1875 L 6.09375 -17.1875 Z M 6.09375 -11 "/></g></g></g><g fill="#ffffff" fill-opacity="1"><g transform="translate(160.132144, 467.73614)"><g><path d="M 18.15625 -2.609375 C 17.394531 -1.691406 16.316406 -0.976562 14.921875 -0.46875 C 13.523438 0.03125 11.972656 0.28125 10.265625 0.28125 C 8.484375 0.28125 6.921875 -0.101562 5.578125 -0.875 C 4.234375 -1.65625 3.191406 -2.785156 2.453125 -4.265625 C 1.722656 -5.753906 1.347656 -7.5 1.328125 -9.5 L 1.328125 -10.90625 C 1.328125 -12.96875 1.675781 -14.75 2.375 -16.25 C 3.070312 -17.757812 4.070312 -18.910156 5.375 -19.703125 C 6.6875 -20.503906 8.21875 -20.90625 9.96875 -20.90625 C 12.414062 -20.90625 14.328125 -20.320312 15.703125 -19.15625 C 17.085938 -17.988281 17.90625 -16.289062 18.15625 -14.0625 L 14.03125 -14.0625 C 13.84375 -15.25 13.421875 -16.113281 12.765625 -16.65625 C 12.117188 -17.207031 11.234375 -17.484375 10.109375 -17.484375 C 8.660156 -17.484375 7.554688 -16.9375 6.796875 -15.84375 C 6.046875 -14.757812 5.664062 -13.148438 5.65625 -11.015625 L 5.65625 -9.6875 C 5.65625 -7.53125 6.066406 -5.894531 6.890625 -4.78125 C 7.710938 -3.675781 8.914062 -3.125 10.5 -3.125 C 12.09375 -3.125 13.226562 -3.46875 13.90625 -4.15625 L 13.90625 -7.703125 L 10.046875 -7.703125 L 10.046875 -10.84375 L 18.15625 -10.84375 Z M 18.15625 -2.609375 "/></g></g></g><g fill="#ffffff" fill-opacity="1"><g transform="translate(160.249331, 411.103329)"><g><path d="M 13.484375 -4.25 L 6.03125 -4.25 L 4.625 0 L 0.09375 0 L 7.78125 -20.625 L 11.71875 -20.625 L 19.4375 0 L 14.921875 0 Z M 7.1875 -7.6875 L 12.34375 -7.6875 L 9.75 -15.421875 Z M 7.1875 -7.6875 "/></g></g></g><g fill="#ffffff" fill-opacity="1"><g transform="translate(160.753238, 354.470481)"><g><path d="M 1.84375 0 L 1.84375 -20.625 L 9.0625 -20.625 C 11.570312 -20.625 13.472656 -20.144531 14.765625 -19.1875 C 16.054688 -18.226562 16.703125 -16.820312 16.703125 -14.96875 C 16.703125 -13.957031 16.441406 -13.066406 15.921875 -12.296875 C 15.398438 -11.535156 14.675781 -10.972656 13.75 -10.609375 C 14.8125 -10.347656 15.644531 -9.816406 16.25 -9.015625 C 16.863281 -8.210938 17.171875 -7.226562 17.171875 -6.0625 C 17.171875 -4.082031 16.535156 -2.582031 15.265625 -1.5625 C 14.003906 -0.539062 12.203125 -0.0195312 9.859375 0 Z M 6.09375 -8.984375 L 6.09375 -3.421875 L 9.734375 -3.421875 C 10.734375 -3.421875 11.515625 -3.65625 12.078125 -4.125 C 12.640625 -4.601562 12.921875 -5.265625 12.921875 -6.109375 C 12.921875 -7.992188 11.941406 -8.953125 9.984375 -8.984375 Z M 6.09375 -11.984375 L 9.234375 -11.984375 C 11.378906 -12.023438 12.453125 -12.878906 12.453125 -14.546875 C 12.453125 -15.484375 12.179688 -16.15625 11.640625 -16.5625 C 11.097656 -16.976562 10.238281 -17.1875 9.0625 -17.1875 L 6.09375 -17.1875 Z M 6.09375 -11.984375 "/></g></g></g><g fill="#ffffff" fill-opacity="1"><g transform="translate(162.065738, 297.83766)"><g><path d="M 14.25 -8.4375 L 6.09375 -8.4375 L 6.09375 0 L 1.84375 0 L 1.84375 -20.625 L 15.265625 -20.625 L 15.265625 -17.1875 L 6.09375 -17.1875 L 6.09375 -11.859375 L 14.25 -11.859375 Z M 14.25 -8.4375 "/></g></g></g><g fill="#ffffff" fill-opacity="1"><g transform="translate(102.381085, 693.939369)"><g><path d="M 6.34375 -3.421875 L 16.75 -3.421875 L 16.75 0 L 1.03125 0 L 1.03125 -2.5 L 11.234375 -17.1875 L 1.046875 -17.1875 L 1.046875 -20.625 L 16.515625 -20.625 L 16.515625 -18.1875 Z M 6.34375 -3.421875 "/></g></g></g><g fill="#ffffff" fill-opacity="1"><g transform="translate(101.619366, 637.634628)"><g><path d="M 17.453125 -20.625 L 17.453125 -7.046875 C 17.453125 -4.785156 16.742188 -3 15.328125 -1.6875 C 13.921875 -0.375 11.992188 0.28125 9.546875 0.28125 C 7.140625 0.28125 5.226562 -0.351562 3.8125 -1.625 C 2.394531 -2.90625 1.671875 -4.660156 1.640625 -6.890625 L 1.640625 -20.625 L 5.890625 -20.625 L 5.890625 -7.015625 C 5.890625 -5.660156 6.210938 -4.671875 6.859375 -4.046875 C 7.503906 -3.429688 8.398438 -3.125 9.546875 -3.125 C 11.941406 -3.125 13.15625 -4.382812 13.1875 -6.90625 L 13.1875 -20.625 Z M 17.453125 -20.625 "/></g></g></g><g fill="#ffffff" fill-opacity="1"><g transform="translate(101.291241, 581.001783)"><g><path d="M 18.15625 -2.609375 C 17.394531 -1.691406 16.316406 -0.976562 14.921875 -0.46875 C 13.523438 0.03125 11.972656 0.28125 10.265625 0.28125 C 8.484375 0.28125 6.921875 -0.101562 5.578125 -0.875 C 4.234375 -1.65625 3.191406 -2.785156 2.453125 -4.265625 C 1.722656 -5.753906 1.347656 -7.5 1.328125 -9.5 L 1.328125 -10.90625 C 1.328125 -12.96875 1.675781 -14.75 2.375 -16.25 C 3.070312 -17.757812 4.070312 -18.910156 5.375 -19.703125 C 6.6875 -20.503906 8.21875 -20.90625 9.96875 -20.90625 C 12.414062 -20.90625 14.328125 -20.320312 15.703125 -19.15625 C 17.085938 -17.988281 17.90625 -16.289062 18.15625 -14.0625 L 14.03125 -14.0625 C 13.84375 -15.25 13.421875 -16.113281 12.765625 -16.65625 C 12.117188 -17.207031 11.234375 -17.484375 10.109375 -17.484375 C 8.660156 -17.484375 7.554688 -16.9375 6.796875 -15.84375 C 6.046875 -14.757812 5.664062 -13.148438 5.65625 -11.015625 L 5.65625 -9.6875 C 5.65625 -7.53125 6.066406 -5.894531 6.890625 -4.78125 C 7.710938 -3.675781 8.914062 -3.125 10.5 -3.125 C 12.09375 -3.125 13.226562 -3.46875 13.90625 -4.15625 L 13.90625 -7.703125 L 10.046875 -7.703125 L 10.046875 -10.84375 L 18.15625 -10.84375 Z M 18.15625 -2.609375 "/></g></g></g><g fill="#ffffff" fill-opacity="1"><g transform="translate(101.95921, 524.368938)"><g><path d="M 8.296875 -8.28125 L 6.09375 -5.890625 L 6.09375 0 L 1.84375 0 L 1.84375 -20.625 L 6.09375 -20.625 L 6.09375 -11.28125 L 7.96875 -13.84375 L 13.21875 -20.625 L 18.453125 -20.625 L 11.125 -11.46875 L 18.65625 0 L 13.59375 0 Z M 8.296875 -8.28125 "/></g></g></g><g fill="#ffffff" fill-opacity="1"><g transform="translate(101.150616, 467.73614)"><g><path d="M 18.765625 -9.84375 C 18.765625 -7.914062 18.453125 -6.238281 17.828125 -4.8125 C 17.203125 -3.394531 16.335938 -2.257812 15.234375 -1.40625 L 18.65625 1.296875 L 15.953125 3.6875 L 11.5625 0.15625 C 11.0625 0.238281 10.539062 0.28125 10 0.28125 C 8.289062 0.28125 6.765625 -0.128906 5.421875 -0.953125 C 4.085938 -1.773438 3.050781 -2.945312 2.3125 -4.46875 C 1.570312 -6 1.195312 -7.753906 1.1875 -9.734375 L 1.1875 -10.75 C 1.1875 -12.78125 1.550781 -14.566406 2.28125 -16.109375 C 3.019531 -17.660156 4.054688 -18.847656 5.390625 -19.671875 C 6.722656 -20.492188 8.25 -20.90625 9.96875 -20.90625 C 11.6875 -20.90625 13.210938 -20.492188 14.546875 -19.671875 C 15.890625 -18.847656 16.925781 -17.660156 17.65625 -16.109375 C 18.394531 -14.566406 18.765625 -12.785156 18.765625 -10.765625 Z M 14.453125 -10.78125 C 14.453125 -12.945312 14.0625 -14.585938 13.28125 -15.703125 C 12.507812 -16.828125 11.40625 -17.390625 9.96875 -17.390625 C 8.539062 -17.390625 7.441406 -16.832031 6.671875 -15.71875 C 5.898438 -14.613281 5.507812 -12.992188 5.5 -10.859375 L 5.5 -9.84375 C 5.5 -7.738281 5.882812 -6.101562 6.65625 -4.9375 C 7.4375 -3.78125 8.550781 -3.203125 10 -3.203125 C 11.425781 -3.203125 12.519531 -3.757812 13.28125 -4.875 C 14.050781 -6 14.441406 -7.632812 14.453125 -9.78125 Z M 14.453125 -10.78125 "/></g></g></g><g fill="#ffffff" fill-opacity="1"><g transform="translate(106.939679, 411.103329)"><g><path d="M 6.359375 0 L 2.109375 0 L 2.109375 -20.625 L 6.359375 -20.625 Z M 6.359375 0 "/></g></g></g><g fill="#ffffff" fill-opacity="1"><g transform="translate(102.252179, 354.470481)"><g><path d="M 12.53125 -5.40625 C 12.53125 -6.207031 12.25 -6.820312 11.6875 -7.25 C 11.125 -7.6875 10.101562 -8.144531 8.625 -8.625 C 7.15625 -9.101562 5.988281 -9.570312 5.125 -10.03125 C 2.78125 -11.289062 1.609375 -12.992188 1.609375 -15.140625 C 1.609375 -16.253906 1.921875 -17.25 2.546875 -18.125 C 3.179688 -19 4.085938 -19.679688 5.265625 -20.171875 C 6.441406 -20.660156 7.757812 -20.90625 9.21875 -20.90625 C 10.695312 -20.90625 12.007812 -20.640625 13.15625 -20.109375 C 14.3125 -19.578125 15.207031 -18.820312 15.84375 -17.84375 C 16.476562 -16.875 16.796875 -15.769531 16.796875 -14.53125 L 12.546875 -14.53125 C 12.546875 -15.476562 12.25 -16.210938 11.65625 -16.734375 C 11.0625 -17.265625 10.226562 -17.53125 9.15625 -17.53125 C 8.113281 -17.53125 7.300781 -17.304688 6.71875 -16.859375 C 6.144531 -16.421875 5.859375 -15.84375 5.859375 -15.125 C 5.859375 -14.457031 6.195312 -13.894531 6.875 -13.4375 C 7.550781 -12.988281 8.546875 -12.566406 9.859375 -12.171875 C 12.273438 -11.441406 14.035156 -10.535156 15.140625 -9.453125 C 16.242188 -8.378906 16.796875 -7.039062 16.796875 -5.4375 C 16.796875 -3.65625 16.117188 -2.253906 14.765625 -1.234375 C 13.421875 -0.222656 11.609375 0.28125 9.328125 0.28125 C 7.734375 0.28125 6.285156 -0.00390625 4.984375 -0.578125 C 3.679688 -1.160156 2.6875 -1.957031 2 -2.96875 C 1.320312 -3.976562 0.984375 -5.148438 0.984375 -6.484375 L 5.234375 -6.484375 C 5.234375 -4.210938 6.597656 -3.078125 9.328125 -3.078125 C 10.335938 -3.078125 11.125 -3.28125 11.6875 -3.6875 C 12.25 -4.101562 12.53125 -4.675781 12.53125 -5.40625 Z M 12.53125 -5.40625 "/></g></g></g><g fill="#ffffff" fill-opacity="1"><g transform="translate(101.291241, 297.83766)"><g><path d="M 18.15625 -2.609375 C 17.394531 -1.691406 16.316406 -0.976562 14.921875 -0.46875 C 13.523438 0.03125 11.972656 0.28125 10.265625 0.28125 C 8.484375 0.28125 6.921875 -0.101562 5.578125 -0.875 C 4.234375 -1.65625 3.191406 -2.785156 2.453125 -4.265625 C 1.722656 -5.753906 1.347656 -7.5 1.328125 -9.5 L 1.328125 -10.90625 C 1.328125 -12.96875 1.675781 -14.75 2.375 -16.25 C 3.070312 -17.757812 4.070312 -18.910156 5.375 -19.703125 C 6.6875 -20.503906 8.21875 -20.90625 9.96875 -20.90625 C 12.414062 -20.90625 14.328125 -20.320312 15.703125 -19.15625 C 17.085938 -17.988281 17.90625 -16.289062 18.15625 -14.0625 L 14.03125 -14.0625 C 13.84375 -15.25 13.421875 -16.113281 12.765625 -16.65625 C 12.117188 -17.207031 11.234375 -17.484375 10.109375 -17.484375 C 8.660156 -17.484375 7.554688 -16.9375 6.796875 -15.84375 C 6.046875 -14.757812 5.664062 -13.148438 5.65625 -11.015625 L 5.65625 -9.6875 C 5.65625 -7.53125 6.066406 -5.894531 6.890625 -4.78125 C 7.710938 -3.675781 8.914062 -3.125 10.5 -3.125 C 12.09375 -3.125 13.226562 -3.46875 13.90625 -4.15625 L 13.90625 -7.703125 L 10.046875 -7.703125 L 10.046875 -10.84375 L 18.15625 -10.84375 Z M 18.15625 -2.609375 "/></g></g></g></svg>